<svg xmlns="http://www.w3.org/2000/svg" xmlns:xlink="http://www.w3.org/1999/xlink" width="545" zoomAndPan="magnify" viewBox="0 0 408.75 390.749986" height="521" preserveAspectRatio="xMidYMid meet" version="1.0"><defs><clipPath id="6d6f02768a"><path d="M 75.496094 75.171875 L 333.605469 75.171875 L 333.605469 315.882812 L 75.496094 315.882812 Z M 75.496094 75.171875 " clip-rule="nonzero"/></clipPath><clipPath id="c6de4ac001"><path d="M 152.152344 136.828125 L 285.558594 136.828125 L 285.558594 300.203125 L 152.152344 300.203125 Z M 152.152344 136.828125 " clip-rule="nonzero"/></clipPath></defs><g clip-path="url(#6d6f02768a)"><path fill="#1d1d1d" d="M 330.601562 200.714844 L 333.605469 195.515625 L 312.453125 158.882812 L 305.195312 117.574219 L 305.132812 117.226562 L 299.492188 115.167969 L 298.03125 109.710938 L 297.941406 109.367188 L 286.597656 106.324219 L 281.785156 96.003906 L 281.636719 95.679688 L 275.65625 95.15625 L 272.828125 90.265625 L 272.652344 89.957031 L 230.351562 89.957031 L 190.609375 75.464844 L 186.003906 79.320312 L 180.546875 77.859375 L 180.207031 77.765625 L 171.898438 86.066406 L 160.199219 85.039062 L 156.753906 89.957031 L 150.75 89.957031 L 129.597656 126.585938 L 102.269531 149.488281 C 102.070312 149.25 101.863281 149.027344 101.644531 148.816406 C 100.308594 147.539062 98.269531 146.582031 97.09375 148.644531 C 96.117188 150.359375 96.238281 152.964844 96.726562 154.902344 C 96.859375 155.421875 97.023438 155.929688 97.210938 156.417969 C 97.410156 156.878906 97.632812 157.320312 97.875 157.742188 L 98.214844 159.667969 L 97.203125 160.675781 C 97 160.171875 96.773438 159.683594 96.515625 159.222656 C 96 158.304688 95.304688 157.453125 94.40625 157.375 C 93.546875 157.300781 92.886719 158.054688 92.441406 158.9375 C 91.890625 160.027344 91.539062 161.351562 91.238281 162.617188 C 91.074219 163.324219 90.941406 164.050781 90.835938 164.785156 C 90.046875 163.699219 89.085938 162.84375 88.023438 162.308594 C 86.527344 161.554688 84.421875 161.335938 83.753906 163.769531 C 83.472656 164.804688 83.480469 165.953125 83.664062 167.0625 C 83.851562 168.171875 84.285156 169.238281 84.734375 170.132812 C 85.75 172.113281 87.164062 173.472656 88.691406 174.546875 C 90.375 175.734375 92.128906 176.625 93.960938 177.117188 C 94.152344 177.671875 94.34375 178.222656 94.539062 178.769531 L 90.261719 184.875 L 90.78125 185.984375 C 90.046875 186.015625 89.316406 186.097656 88.601562 186.226562 C 87.183594 186.480469 85.789062 186.898438 84.410156 187.375 C 83.828125 187.574219 84.007812 188.714844 84.464844 189.039062 C 86.757812 190.625 89.179688 191.714844 91.632812 192.339844 L 89.796875 195.515625 L 103.421875 219.113281 C 103.394531 219.269531 103.363281 219.429688 103.339844 219.589844 C 103.199219 220.515625 103.121094 221.476562 103.097656 222.445312 C 102.222656 221.460938 101.21875 220.675781 100.132812 220.167969 C 98.460938 219.390625 96.234375 219.15625 95.785156 221.582031 C 95.421875 223.554688 96.378906 226.074219 97.441406 227.753906 C 98.050781 228.71875 98.730469 229.53125 99.46875 230.230469 C 100.230469 230.925781 101.054688 231.503906 101.90625 232.015625 C 103.625 233.050781 105.359375 233.847656 107.132812 234.300781 C 107.410156 235.292969 107.648438 236.292969 107.851562 237.300781 C 107.953125 237.804688 108.039062 238.308594 108.125 238.8125 C 108.226562 239.3125 108.3125 239.816406 108.394531 240.316406 C 108.710938 242.324219 108.878906 244.339844 108.886719 246.328125 C 108.90625 247.882812 108.777344 249.449219 108.664062 250.9375 C 107.449219 249.269531 106.320312 247.570312 105.066406 245.945312 C 104.289062 244.921875 103.492188 243.914062 102.667969 242.9375 C 101.847656 241.960938 100.992188 241.015625 100.175781 240.078125 C 98.511719 238.21875 96.746094 236.488281 94.871094 234.949219 C 93.253906 233.625 91.542969 232.457031 89.871094 231.492188 C 89.476562 229.226562 88.671875 227.046875 87.558594 225.148438 C 87.003906 224.199219 86.351562 223.328125 85.671875 222.539062 C 85 221.75 84.261719 221.058594 83.460938 220.492188 C 81.96875 219.433594 80.246094 218.667969 78.671875 218.757812 C 77.867188 218.804688 77.09375 219.21875 76.804688 220.265625 C 76.519531 221.296875 76.800781 222.480469 77.199219 223.550781 C 77.378906 224.035156 77.578125 224.511719 77.792969 224.984375 C 78.023438 225.449219 78.269531 225.90625 78.53125 226.355469 C 79.050781 227.25 79.621094 228.101562 80.214844 228.898438 C 79.042969 229.050781 77.957031 229.601562 77.09375 230.53125 C 76.484375 231.195312 75.933594 232.007812 75.722656 233.113281 C 75.496094 234.285156 75.8125 235.574219 76.488281 236.621094 C 77.726562 238.492188 79.75 239.285156 81.324219 239.382812 C 82.976562 239.484375 84.496094 238.894531 85.796875 237.917969 C 87.371094 236.730469 88.628906 235.015625 89.847656 233.316406 C 91.023438 233.96875 92.183594 234.738281 93.304688 235.589844 C 94.839844 236.757812 96.304688 238.070312 97.703125 239.492188 C 98.40625 240.203125 99.085938 240.941406 99.753906 241.699219 C 100.453125 242.445312 101.132812 243.214844 101.792969 244.003906 C 98.261719 241.988281 94.511719 241.6875 91.125 242.378906 C 89.726562 242.664062 88.371094 243.109375 87.039062 243.617188 C 86.546875 243.800781 86.503906 244.90625 87.101562 245.285156 C 91.6875 248.113281 96.5625 249.332031 101.050781 248.902344 C 102.335938 248.777344 103.59375 248.527344 104.8125 248.152344 C 104.875 248.132812 104.929688 248.101562 104.976562 248.0625 C 105.597656 248.914062 106.203125 249.773438 106.808594 250.636719 C 107.441406 251.492188 108.0625 252.351562 108.679688 253.214844 C 108.703125 253.253906 108.726562 253.285156 108.753906 253.320312 C 109.636719 254.585938 110.511719 255.839844 111.382812 257.089844 C 112.253906 258.347656 113.089844 259.621094 114.023438 260.835938 C 114.683594 261.707031 115.339844 262.578125 116.003906 263.457031 C 116.066406 263.609375 116.164062 263.734375 116.285156 263.824219 C 116.382812 263.953125 116.484375 264.074219 116.582031 264.203125 L 117.609375 270.0625 C 116.070312 270.007812 114.5625 270.167969 113.160156 270.480469 C 111.761719 270.792969 110.402344 271.238281 109.074219 271.746094 C 108.535156 271.949219 108.734375 273.027344 109.304688 273.347656 C 114.097656 275.925781 119.046875 276.953125 123.566406 276.421875 C 123.726562 276.402344 123.882812 276.375 124.042969 276.351562 L 125.371094 281.320312 L 125.460938 281.664062 L 136.804688 284.707031 L 141.613281 295.027344 L 141.765625 295.347656 L 147.449219 295.847656 C 148.019531 296.726562 148.589844 297.601562 149.175781 298.46875 L 149.320312 298.691406 C 149.371094 298.769531 149.429688 298.832031 149.488281 298.890625 L 150.570312 300.765625 L 150.75 301.074219 L 193.050781 301.074219 L 232.792969 315.566406 L 237.394531 311.710938 L 242.851562 313.171875 L 243.195312 313.265625 L 251.503906 304.96875 L 263.203125 305.992188 L 266.648438 301.074219 L 272.652344 301.074219 L 293.804688 264.441406 L 326.226562 237.277344 L 325.1875 231.363281 L 329.433594 227.117188 L 326.402344 215.773438 L 333.136719 206.160156 Z M 332.183594 195.515625 L 329.96875 199.355469 L 313.269531 163.539062 L 313.074219 162.417969 Z M 112.742188 235.253906 L 113.3125 236.238281 L 115.042969 242.710938 C 114.824219 243.480469 114.632812 244.269531 114.46875 245.074219 Z M 99.535156 160.085938 C 99.578125 160.140625 99.621094 160.191406 99.660156 160.246094 C 100.816406 161.726562 101.949219 163.121094 103.355469 164.101562 C 103.390625 164.75 103.414062 165.398438 103.449219 166.046875 L 101.160156 169.320312 Z M 291.917969 262.859375 L 282.21875 272.546875 L 249.640625 299.84375 L 207.136719 299.84375 L 193.480469 298.644531 L 180.242188 295.09375 L 140.308594 280.53125 L 134.714844 270.84375 C 136.335938 269.410156 137.402344 267.410156 138.054688 265.167969 C 138.402344 263.980469 138.628906 262.722656 138.765625 261.445312 C 138.898438 260.167969 138.925781 258.871094 138.945312 257.5625 C 138.953125 255.960938 138.855469 254.351562 138.71875 252.75 C 138.652344 251.964844 137.875 251.5625 137.453125 252.121094 C 136.078125 253.964844 134.972656 256.078125 134.152344 258.398438 C 133.746094 259.554688 133.398438 260.769531 133.148438 262.019531 C 132.917969 263.253906 132.765625 264.53125 132.6875 265.835938 C 132.660156 266.308594 132.65625 266.789062 132.648438 267.265625 L 131.417969 265.132812 L 130.757812 263.820312 C 130.125 262.574219 129.582031 261.285156 128.988281 260.019531 L 127.246094 256.207031 C 126.664062 254.9375 126.070312 253.671875 125.558594 252.371094 L 122.636719 245.277344 C 121.691406 242.902344 120.847656 240.488281 119.949219 238.09375 C 119.257812 234.871094 120.582031 232.15625 122.097656 229.921875 C 123.042969 230.878906 124.054688 231.632812 125.109375 232.210938 C 126.15625 232.792969 127.308594 233.175781 128.429688 233.425781 C 130.695312 233.921875 133 233.835938 135.152344 233.410156 C 136.554688 233.132812 137.921875 232.722656 139.269531 232.253906 C 139.789062 232.074219 139.792969 231.148438 139.246094 230.863281 C 138.167969 230.300781 137.0625 229.804688 135.941406 229.378906 C 134.824219 228.953125 133.730469 228.582031 132.601562 228.296875 C 130.355469 227.722656 128.066406 227.449219 125.8125 227.515625 C 125.109375 227.535156 124.410156 227.59375 123.71875 227.683594 C 124.289062 226.910156 124.847656 226.128906 125.359375 225.300781 C 127.019531 224.289062 128.496094 223.023438 129.878906 221.640625 C 131.253906 220.257812 132.613281 218.726562 133.917969 217.207031 C 135.496094 217.707031 137.09375 217.945312 138.691406 217.964844 C 140.351562 217.984375 141.996094 217.820312 143.488281 217.078125 C 144.882812 216.386719 146.207031 215.132812 146.738281 213.496094 C 147.023438 212.617188 147.019531 211.582031 146.460938 210.777344 C 145.9375 210.019531 145.140625 209.59375 144.335938 209.335938 C 142.941406 208.886719 141.46875 208.902344 140.144531 209.355469 C 140.449219 207.84375 140.699219 206.238281 140.644531 204.667969 C 140.617188 203.679688 140.398438 202.613281 139.625 201.964844 C 138.929688 201.378906 138.03125 201.425781 137.289062 201.710938 C 135.671875 202.332031 134.300781 203.671875 133.351562 205.261719 C 132.453125 206.757812 132.007812 208.496094 131.964844 210.398438 C 131.976562 212.265625 132.3125 214.265625 132.960938 216.070312 C 131.371094 217.917969 129.757812 219.777344 127.953125 221.378906 C 127.617188 221.675781 127.28125 221.960938 126.941406 222.234375 C 127.15625 221.726562 127.398438 221.199219 127.601562 220.667969 C 128.703125 217.824219 129.375 214.773438 129.613281 211.664062 C 129.9375 208.53125 129.890625 205.324219 129.371094 202.179688 C 129.328125 201.921875 129.273438 201.664062 129.238281 201.398438 C 130.371094 200.21875 131.285156 198.710938 131.949219 197.140625 C 132.671875 195.4375 133.03125 193.691406 132.867188 191.757812 C 132.761719 189.65625 132.171875 187.539062 131.066406 185.785156 C 130.59375 185.03125 129.894531 184.320312 129.066406 184.242188 C 128.136719 184.15625 127.425781 184.859375 126.972656 185.703125 C 126.199219 187.128906 125.691406 188.824219 125.390625 190.558594 C 124.65625 189.609375 123.769531 188.832031 122.761719 188.296875 C 121.210938 187.472656 119.042969 187.09375 118.289062 189.242188 C 117.691406 190.984375 118.257812 193.332031 119.148438 194.910156 C 120.175781 196.722656 121.550781 198.003906 123.097656 199.050781 C 124.652344 200.101562 126.253906 200.941406 127.9375 201.46875 C 128.484375 204.511719 128.660156 207.617188 128.375 210.6875 C 128.152344 213.6875 127.609375 216.632812 126.597656 219.363281 C 126.105469 220.730469 125.46875 222.070312 124.816406 223.292969 C 124.667969 223.5625 124.515625 223.824219 124.355469 224.082031 C 124.328125 224.117188 124.308594 224.152344 124.289062 224.195312 C 123.617188 225.277344 122.859375 226.285156 122.101562 227.296875 C 120.648438 229.234375 119.117188 231.53125 118.570312 234.257812 L 117.765625 231.792969 L 116.453125 227.777344 C 116.011719 226.441406 115.566406 225.105469 115.203125 223.742188 L 112.890625 215.621094 C 117.085938 213.617188 119.445312 208.667969 120.566406 203.609375 C 120.960938 202.0625 121.257812 200.484375 121.515625 198.90625 C 121.648438 198.105469 120.957031 197.585938 120.425781 198.015625 C 116.867188 200.894531 114.015625 205.121094 112.523438 210.097656 C 112.328125 210.710938 112.15625 211.34375 112 211.980469 L 111.589844 210.304688 C 111.191406 208.625 110.746094 206.957031 110.386719 205.269531 L 109.351562 200.195312 C 109.023438 198.503906 108.625 196.820312 108.351562 195.117188 L 107.511719 190.007812 L 107.097656 187.488281 L 106.890625 186.226562 L 106.730469 184.960938 L 106.097656 179.894531 C 108.304688 179.203125 110.136719 177.703125 111.632812 175.785156 C 113.179688 173.863281 114.4375 171.511719 115.375 169.082031 C 115.878906 167.796875 116.289062 166.480469 116.707031 165.148438 L 116.714844 165.136719 C 116.734375 165.082031 116.75 165.03125 116.761719 164.980469 L 116.898438 164.570312 C 117.152344 163.800781 116.550781 163.1875 115.960938 163.535156 C 114.96875 164.125 114.011719 164.800781 113.097656 165.558594 C 112.199219 166.316406 111.363281 167.15625 110.566406 168.066406 C 108.980469 169.894531 107.589844 172.019531 106.4375 174.378906 C 106.15625 174.964844 105.886719 175.566406 105.632812 176.175781 L 105.328125 172.589844 L 105.214844 171.265625 L 123.617188 139.398438 L 131.484375 128.167969 L 141.183594 118.480469 L 173.761719 91.183594 L 216.265625 91.183594 L 229.921875 92.378906 L 243.160156 95.933594 L 283.09375 110.496094 L 304.34375 147.296875 L 310.136719 159.726562 L 313.679688 172.960938 L 321.035156 214.824219 L 299.78125 251.628906 Z M 138.851562 281.992188 C 137.949219 281.496094 137.054688 280.972656 136.164062 280.421875 L 136.109375 280.3125 L 138.382812 281.140625 Z M 104.972656 168.382812 L 104.792969 166.28125 L 104.792969 166.277344 L 115.539062 150.933594 L 105.035156 169.125 Z M 104.691406 164.171875 C 104.746094 164.132812 104.792969 164.089844 104.847656 164.054688 L 104.699219 164.269531 Z M 104.050781 173.289062 C 104.183594 174.660156 104.246094 176.035156 104.441406 177.398438 L 105.46875 185.640625 C 105.914062 188.679688 106.453125 191.707031 106.9375 194.742188 C 106.429688 194.484375 105.941406 194.179688 105.46875 193.851562 L 102.367188 176.203125 Z M 104.023438 192.726562 C 103.511719 192.273438 103.023438 191.777344 102.550781 191.25 L 99.742188 180.75 L 101.410156 177.863281 Z M 104.417969 194.972656 L 106.082031 204.457031 L 103.296875 194.042969 C 103.664062 194.371094 104.035156 194.683594 104.417969 194.972656 Z M 113.265625 231.300781 L 109.722656 218.066406 L 105.832031 195.910156 C 106.207031 196.128906 106.585938 196.328125 106.976562 196.503906 C 107.074219 196.546875 107.164062 196.5625 107.246094 196.554688 L 109.085938 205.570312 C 109.917969 209.160156 110.8125 212.738281 111.699219 216.316406 L 113.214844 221.632812 L 113.972656 224.292969 C 114.21875 225.179688 114.476562 226.066406 114.773438 226.9375 C 117.046875 234.078125 119.507812 241.164062 122.355469 248.09375 C 123.007812 249.664062 123.644531 251.238281 124.296875 252.804688 L 119.058594 243.730469 Z M 129.515625 264.304688 C 129.964844 265.234375 130.421875 266.160156 130.902344 267.074219 L 132.800781 270.847656 L 133.753906 272.738281 L 134.765625 274.589844 L 137.476562 279.5 L 135.375 278.734375 L 125.007812 256.492188 Z M 141.265625 282.191406 L 166.636719 291.441406 L 142.933594 285.078125 Z M 305.4375 146.730469 L 289.660156 112.890625 L 298.46875 116.105469 L 307.71875 150.683594 Z M 298.394531 134.535156 L 284.890625 111.152344 L 288.027344 112.296875 Z M 283.933594 109.496094 L 282.148438 106.402344 L 285.726562 107.363281 L 287.292969 110.71875 Z M 282.136719 108.839844 L 256.761719 99.585938 L 280.46875 105.949219 Z M 243.53125 94.761719 L 239.246094 93.199219 L 274.910156 96.324219 L 279.597656 104.445312 Z M 216.320312 89.957031 L 179.117188 86.695312 L 186.304688 80.675781 L 220.882812 89.957031 Z M 202.234375 89.957031 L 175.226562 89.957031 L 177.785156 87.8125 Z M 173.3125 89.957031 L 169.742188 89.957031 L 172.359375 87.339844 L 176.050781 87.664062 Z M 171.847656 91.1875 L 151.148438 108.53125 L 168.507812 91.1875 Z M 140.351562 117.574219 L 136.855469 120.507812 L 157.394531 91.1875 L 166.769531 91.1875 Z M 122.582031 138.738281 L 110.65625 155.761719 C 111.117188 153.59375 111.078125 151.25 110.515625 149.121094 L 124.863281 134.785156 Z M 103.597656 167.980469 L 103.695312 169.132812 L 103.867188 171.144531 L 102.035156 174.316406 L 101.457031 171.03125 Z M 101.078125 175.976562 L 99.292969 179.070312 L 98.335938 175.492188 L 100.460938 172.457031 Z M 98.421875 180.578125 L 97.347656 182.4375 C 96.855469 181.265625 96.398438 180.070312 95.96875 178.871094 L 97.414062 176.804688 Z M 98.871094 182.257812 L 100.609375 188.753906 C 100.285156 188.277344 99.96875 187.789062 99.660156 187.28125 C 99.054688 186.191406 98.488281 185.035156 97.957031 183.84375 Z M 98.4375 187.859375 C 97.730469 187.425781 96.996094 187.078125 96.25 186.800781 L 97.128906 185.277344 C 97.539062 186.160156 97.972656 187.023438 98.4375 187.859375 Z M 97.628906 192.925781 C 98.878906 192.855469 100.113281 192.65625 101.324219 192.34375 C 101.402344 192.324219 101.472656 192.285156 101.539062 192.234375 C 101.539062 192.238281 101.542969 192.238281 101.542969 192.242188 L 108.078125 216.675781 C 107.527344 215.882812 106.765625 215.15625 105.941406 215.140625 C 105.871094 215.136719 105.804688 215.152344 105.738281 215.160156 L 95.371094 192.917969 C 96.125 192.964844 96.882812 192.96875 97.628906 192.925781 Z M 117.683594 263.378906 C 118.535156 261.757812 118.964844 259.925781 119.125 257.96875 L 121.976562 268.636719 C 121.628906 268.261719 121.277344 267.886719 120.941406 267.5 C 120.570312 267.050781 120.203125 266.609375 119.835938 266.167969 C 119.117188 265.289062 118.410156 264.394531 117.703125 263.488281 Z M 127.453125 274.046875 L 127.324219 273.929688 C 127.28125 273.871094 127.230469 273.816406 127.171875 273.765625 C 127.105469 273.710938 127.035156 273.652344 126.964844 273.597656 C 125.871094 272.601562 124.800781 271.558594 123.746094 270.484375 L 119.046875 252.917969 C 118.851562 251.121094 118.496094 249.3125 118.023438 247.570312 C 117.898438 247.125 117.773438 246.679688 117.644531 246.238281 C 117.523438 245.789062 117.402344 245.34375 117.28125 244.894531 C 117.027344 244.003906 116.757812 243.117188 116.472656 242.234375 C 116.390625 241.976562 116.230469 241.808594 116.050781 241.71875 L 115.683594 240.34375 L 117.964844 244.296875 L 133.742188 278.136719 L 131.578125 277.347656 C 130.160156 276.324219 128.75 275.238281 127.453125 274.046875 Z M 127.417969 275.832031 L 127 275.679688 C 127.058594 275.664062 127.117188 275.648438 127.171875 275.628906 C 127.253906 275.699219 127.335938 275.761719 127.417969 275.832031 Z M 137.261719 282.726562 C 137.765625 283.003906 138.277344 283.273438 138.785156 283.535156 C 139.253906 283.765625 139.730469 284 140.203125 284.234375 L 140.285156 284.367188 L 137.675781 283.667969 L 137.226562 282.707031 C 137.238281 282.714844 137.25 282.71875 137.261719 282.726562 Z M 143.804688 286.585938 L 179.871094 296.265625 L 184.15625 297.828125 L 148.492188 294.703125 Z M 207.082031 301.074219 L 244.285156 304.332031 L 237.097656 310.355469 L 202.519531 301.074219 Z M 221.164062 301.074219 L 248.175781 301.074219 L 245.617188 303.214844 Z M 250.089844 301.074219 L 253.660156 301.074219 L 251.039062 303.691406 L 247.351562 303.367188 Z M 251.554688 299.84375 L 272.253906 282.5 L 254.890625 299.84375 Z M 283.050781 273.453125 L 286.546875 270.523438 L 266.007812 299.84375 L 256.632812 299.84375 Z M 300.820312 252.292969 L 322.242188 221.710938 L 323.867188 230.945312 L 298.539062 256.242188 Z M 307.863281 240.097656 L 321.363281 216.710938 L 321.941406 219.996094 Z M 322.320312 215.054688 L 324.109375 211.960938 L 325.066406 215.539062 L 322.941406 218.574219 Z M 321.992188 213.167969 L 317.316406 186.574219 L 323.660156 210.28125 Z M 314.878906 172.703125 L 314.089844 168.210938 L 329.214844 200.652344 L 324.527344 208.773438 Z M 304.046875 118.136719 L 310.65625 155.773438 L 310.089844 154.792969 L 299.878906 116.617188 Z M 296.9375 110.371094 L 298.082031 114.65625 L 288.925781 111.316406 L 287.277344 107.777344 Z M 280.824219 96.84375 L 285.046875 105.90625 L 281.277344 104.894531 L 276.40625 96.457031 Z M 271.941406 91.1875 L 274.160156 95.023438 L 234.789062 91.574219 L 233.722656 91.1875 Z M 190.851562 76.863281 L 226.761719 89.957031 L 225.625 89.957031 L 187.457031 79.710938 Z M 180.570312 79.136719 L 184.855469 80.285156 L 177.382812 86.542969 L 173.496094 86.203125 Z M 160.800781 86.324219 L 170.761719 87.199219 L 168 89.957031 L 158.257812 89.957031 Z M 151.457031 91.1875 L 155.894531 91.1875 L 133.21875 123.550781 L 132.347656 124.28125 Z M 127.234375 130.679688 L 110.066406 147.828125 C 109.828125 147.308594 109.515625 146.851562 109.089844 146.558594 C 108.726562 146.3125 108.355469 146.242188 107.996094 146.289062 L 127.804688 129.695312 Z M 105.683594 148.230469 C 105.277344 148.835938 104.90625 149.492188 104.570312 150.140625 C 104.273438 150.71875 104.003906 151.316406 103.757812 151.933594 C 103.539062 151.421875 103.277344 150.945312 102.988281 150.488281 Z M 98.472656 161.148438 L 100.160156 170.746094 L 97.921875 173.941406 L 97.417969 172.054688 C 97.429688 172.015625 97.449219 171.976562 97.460938 171.9375 C 98.15625 170.007812 98.429688 168.007812 98.308594 165.84375 C 98.25 164.535156 98.023438 163.21875 97.652344 161.96875 Z M 95.144531 176.484375 C 95.710938 175.703125 96.203125 174.828125 96.640625 173.910156 L 97 175.253906 L 95.46875 177.441406 C 95.359375 177.121094 95.25 176.804688 95.144531 176.484375 Z M 95.046875 180.183594 C 95.511719 181.441406 95.992188 182.683594 96.511719 183.886719 L 95.046875 186.421875 C 94.085938 186.167969 93.109375 186.027344 92.136719 185.984375 L 91.675781 184.996094 Z M 91.21875 195.515625 L 92.890625 192.613281 C 93.246094 192.679688 93.597656 192.734375 93.949219 192.78125 L 104.671875 215.777344 C 104.394531 216.097656 104.175781 216.503906 104.011719 216.941406 C 103.953125 217.089844 103.90625 217.246094 103.851562 217.398438 Z M 114.59375 258.527344 C 114.667969 258.953125 114.78125 259.359375 114.882812 259.773438 C 113.183594 257.433594 111.589844 255.015625 109.894531 252.648438 C 110.089844 251.167969 110.128906 249.683594 110.203125 248.132812 C 110.253906 246.59375 110.21875 245.035156 110.09375 243.472656 C 109.96875 241.914062 109.761719 240.347656 109.460938 238.792969 C 109.179688 237.234375 108.871094 235.660156 108.441406 234.117188 C 109.132812 233.113281 109.683594 231.929688 110.097656 230.675781 L 110.949219 232.144531 L 113.9375 249.167969 C 113.925781 249.441406 113.902344 249.710938 113.894531 249.984375 C 113.820312 252.753906 114.054688 255.636719 114.59375 258.527344 Z M 118.1875 266.242188 C 118.519531 266.660156 118.855469 267.078125 119.191406 267.488281 C 120.160156 268.691406 121.246094 269.816406 122.296875 270.933594 C 121.164062 270.535156 120.015625 270.285156 118.875 270.160156 Z M 126.464844 280.660156 L 125.320312 276.375 L 130.507812 278.265625 C 131.292969 278.847656 132.082031 279.410156 132.871094 279.953125 C 133.6875 280.511719 134.511719 281.046875 135.335938 281.5625 L 136.125 283.25 Z M 142.578125 294.1875 L 138.351562 285.121094 L 141.195312 285.886719 L 142.996094 288.875 C 143.46875 289.640625 143.90625 290.429688 144.40625 291.183594 L 145.890625 293.445312 C 146.125 293.808594 146.363281 294.175781 146.597656 294.539062 Z M 151.457031 299.84375 L 150.578125 298.320312 C 150.558594 298.199219 150.507812 298.074219 150.421875 297.941406 L 149.894531 297.132812 L 149.242188 296.003906 L 188.613281 299.453125 L 189.679688 299.84375 Z M 232.546875 314.167969 L 196.640625 301.074219 L 197.777344 301.074219 L 235.945312 311.320312 Z M 242.828125 311.894531 L 238.546875 310.742188 L 246.015625 304.484375 L 249.902344 304.824219 Z M 262.601562 304.703125 L 252.640625 303.832031 L 255.402344 301.074219 L 265.144531 301.074219 Z M 271.941406 299.84375 L 267.507812 299.84375 L 290.183594 267.476562 L 291.054688 266.746094 Z M 324.890625 236.789062 L 295.597656 261.335938 L 296.167969 260.351562 L 324.125 232.421875 Z M 328.0625 226.75 L 324.925781 229.882812 L 323.242188 220.285156 L 325.480469 217.089844 Z M 324.980469 210.453125 L 329.851562 202.015625 L 331.722656 206.03125 L 325.988281 214.222656 Z M 324.980469 210.453125 " fill-opacity="1" fill-rule="nonzero"/></g><path fill="#ffffff" d="M 142.78125 215.792969 C 141.503906 216.394531 140.132812 216.476562 138.734375 216.460938 C 137.78125 216.453125 136.835938 216.359375 135.890625 216.179688 C 137.328125 215.792969 138.675781 215.113281 140.015625 214.429688 C 141.753906 213.535156 143.554688 212.609375 145.535156 212.515625 C 145.558594 212.511719 145.578125 212.507812 145.601562 212.503906 C 145.578125 212.703125 145.527344 212.902344 145.453125 213.09375 C 144.964844 214.351562 143.894531 215.269531 142.78125 215.792969 Z M 139.46875 211.339844 C 139.398438 211.386719 139.320312 211.410156 139.238281 211.417969 C 138.328125 212.296875 137.4375 213.199219 136.578125 214.15625 L 136.28125 214.488281 C 137.460938 214.082031 138.585938 213.480469 139.695312 212.921875 C 141.359375 212.085938 143.054688 211.3125 144.910156 211.109375 C 144.457031 210.808594 143.894531 210.660156 143.410156 210.566406 C 142.027344 210.292969 140.617188 210.578125 139.46875 211.339844 Z M 139.113281 203.4375 C 137.859375 204.914062 136.808594 206.605469 135.984375 208.46875 C 135.558594 209.402344 135.230469 210.367188 134.976562 211.359375 C 134.71875 212.355469 134.519531 213.386719 134.382812 214.441406 C 135.738281 212.898438 137.121094 211.417969 138.582031 210.027344 C 138.8125 209.140625 139.03125 208.203125 139.179688 207.246094 C 139.324219 206.292969 139.382812 205.324219 139.324219 204.371094 C 139.304688 204.070312 139.25 203.714844 139.113281 203.4375 Z M 133.339844 211.605469 C 133.359375 211.78125 133.375 211.957031 133.394531 212.128906 C 133.566406 211.300781 133.753906 210.496094 134.027344 209.703125 C 134.300781 208.910156 134.609375 208.140625 134.953125 207.394531 C 135.640625 205.90625 136.464844 204.523438 137.414062 203.273438 C 137.183594 203.398438 136.964844 203.542969 136.769531 203.675781 C 135.554688 204.492188 134.582031 205.710938 133.949219 207.167969 C 133.371094 208.527344 133.179688 210.054688 133.339844 211.605469 Z M 130.082031 186.71875 C 129.96875 186.542969 129.828125 186.328125 129.664062 186.144531 C 129.605469 188.335938 129.464844 190.542969 129.363281 192.746094 C 129.304688 194.941406 129.210938 197.148438 129.078125 199.359375 C 129.808594 198.40625 130.410156 197.304688 130.875 196.164062 C 131.445312 194.765625 131.703125 193.304688 131.566406 191.722656 C 131.480469 189.992188 130.988281 188.164062 130.082031 186.71875 Z M 127.738281 187.320312 C 127.097656 188.855469 126.671875 190.527344 126.480469 192.269531 C 127.011719 193.449219 127.53125 194.65625 127.9375 195.894531 C 128.015625 192.644531 128.257812 189.375 128.351562 186.132812 C 128.078125 186.472656 127.886719 186.964844 127.738281 187.320312 Z M 121.867188 189.519531 C 121.453125 189.34375 120.929688 189.152344 120.460938 189.183594 C 121.367188 190.847656 122.332031 192.425781 123.464844 193.875 C 124.617188 195.316406 125.855469 196.648438 127.164062 197.84375 C 126.699219 196.160156 126.085938 194.519531 125.328125 192.9375 C 125.285156 192.886719 125.246094 192.832031 125.214844 192.765625 C 124.464844 191.269531 123.246094 190.113281 121.867188 189.519531 Z M 126.921875 199.507812 C 124.035156 196.941406 121.375 193.773438 119.453125 190.105469 C 119.382812 190.382812 119.363281 190.6875 119.363281 190.96875 C 119.371094 192.585938 120.09375 194.191406 121.054688 195.371094 C 122.085938 196.683594 123.398438 197.578125 124.699219 198.375 C 125.421875 198.816406 126.167969 199.191406 126.921875 199.507812 Z M 134.871094 230.53125 C 133.28125 230 131.722656 229.59375 130.140625 229.355469 C 128.5625 229.113281 126.976562 229.035156 125.410156 229.132812 C 128.574219 229.882812 131.675781 230.363281 134.871094 230.53125 Z M 134.132812 232.007812 C 132.683594 231.910156 131.226562 231.761719 129.769531 231.550781 C 128.308594 231.339844 126.890625 231.058594 125.445312 230.726562 C 125.515625 230.765625 125.578125 230.804688 125.644531 230.84375 C 127.023438 231.597656 128.4375 232.003906 129.878906 232.15625 C 131.3125 232.316406 132.738281 232.234375 134.132812 232.007812 Z M 95.488281 160.238281 C 95.375 160.027344 95.226562 159.769531 95.050781 159.550781 L 94.878906 166.796875 L 94.984375 174.050781 C 95.554688 173.042969 96.023438 171.925781 96.390625 170.800781 C 96.664062 169.976562 96.851562 169.140625 96.949219 168.289062 C 97.042969 167.433594 97.039062 166.554688 96.992188 165.636719 C 96.867188 163.71875 96.347656 161.832031 95.488281 160.238281 Z M 91.953125 166.511719 C 92.535156 168.1875 93.125 169.882812 93.648438 171.589844 L 93.601562 168.566406 L 93.578125 167.058594 L 93.609375 165.546875 L 93.753906 159.511719 C 93.46875 159.914062 93.277344 160.515625 93.125 160.949219 C 92.511719 162.695312 92.132812 164.578125 91.953125 166.511719 Z M 86.023438 163.542969 C 87.652344 167.535156 90.128906 170.96875 92.886719 173.589844 C 92.269531 171.582031 91.632812 169.578125 90.925781 167.617188 C 90.851562 167.558594 90.785156 167.480469 90.734375 167.382812 C 89.929688 165.703125 88.714844 164.390625 87.289062 163.824219 C 86.90625 163.675781 86.449219 163.519531 86.023438 163.542969 Z M 91.570312 174.40625 C 90.25 173.082031 89.015625 171.582031 87.886719 169.929688 C 87.324219 169.101562 86.78125 168.238281 86.28125 167.335938 C 85.804688 166.433594 85.359375 165.492188 84.949219 164.523438 C 84.863281 164.847656 84.835938 165.210938 84.839844 165.546875 C 84.839844 167.34375 85.59375 169.085938 86.519531 170.371094 C 87.554688 171.808594 88.816406 172.738281 90.121094 173.574219 C 90.601562 173.882812 91.082031 174.160156 91.570312 174.40625 Z M 88.554688 188.054688 C 91.679688 188.320312 94.863281 188.78125 98.015625 189.425781 L 97.882812 189.339844 C 94.816406 187.5625 91.648438 187.4375 88.554688 188.054688 Z M 89.484375 189.890625 C 92.332031 191.003906 95.253906 191.40625 98.097656 191.152344 C 95.234375 190.578125 92.359375 190.148438 89.484375 189.890625 Z M 107.238281 217.820312 C 107.183594 217.746094 107.125 217.671875 107.0625 217.585938 C 107.488281 219.867188 107.789062 222.152344 107.972656 224.445312 C 108.0625 225.589844 108.113281 226.738281 108.15625 227.878906 C 108.226562 229.015625 108.261719 230.148438 108.269531 231.28125 C 108.710938 230.332031 109.050781 229.292969 109.292969 228.230469 C 109.648438 226.648438 109.792969 224.980469 109.464844 223.230469 C 109.121094 221.324219 108.355469 219.34375 107.238281 217.820312 Z M 104.976562 218.675781 C 104.558594 220.425781 104.378906 222.304688 104.441406 224.238281 C 104.910156 225.089844 105.34375 225.964844 105.746094 226.859375 C 105.945312 227.304688 106.140625 227.757812 106.324219 228.210938 C 106.523438 228.664062 106.71875 229.117188 106.90625 229.574219 C 106.882812 229.0625 106.863281 228.554688 106.839844 228.054688 C 106.824219 227.539062 106.808594 227.027344 106.792969 226.515625 C 106.746094 225.492188 106.675781 224.464844 106.578125 223.441406 C 106.390625 221.390625 106.078125 219.351562 105.699219 217.320312 C 105.679688 217.207031 105.675781 217.09375 105.683594 216.988281 C 105.277344 217.335938 105.097656 218.144531 104.976562 218.675781 Z M 99.414062 221.589844 C 99.171875 221.503906 98.894531 221.414062 98.617188 221.363281 C 99.597656 223.167969 100.703125 224.859375 101.910156 226.402344 C 102.511719 227.171875 103.140625 227.902344 103.789062 228.59375 C 104.4375 229.285156 105.160156 229.921875 105.871094 230.519531 C 105.109375 228.660156 104.339844 226.816406 103.378906 225.070312 C 103.332031 225.019531 103.285156 224.960938 103.242188 224.894531 C 102.273438 223.304688 100.878906 222.128906 99.414062 221.589844 Z M 105.558594 232.125 C 102.296875 229.546875 99.636719 226.027344 97.453125 221.996094 C 97.394531 221.882812 97.359375 221.777344 97.335938 221.671875 C 97.015625 222.074219 97.03125 222.78125 97.113281 223.394531 C 97.359375 225.171875 98.332031 226.871094 99.390625 228.113281 C 99.976562 228.800781 100.617188 229.371094 101.292969 229.863281 C 101.988281 230.347656 102.707031 230.761719 103.417969 231.148438 C 104.125 231.53125 104.839844 231.855469 105.558594 232.125 Z M 78.277344 220.859375 C 81.734375 223.601562 85.210938 226.792969 88.324219 230.398438 C 87.902344 228.679688 87.191406 227.011719 86.269531 225.585938 C 85.777344 224.820312 85.222656 224.125 84.621094 223.511719 C 84.027344 222.894531 83.421875 222.351562 82.769531 221.914062 C 81.605469 221.128906 80.1875 220.511719 78.972656 220.597656 C 78.71875 220.617188 78.460938 220.6875 78.277344 220.859375 Z M 78.898438 224.152344 C 79.789062 225.972656 80.910156 227.597656 82.125 229.039062 C 82.578125 229.058594 83.035156 229.101562 83.492188 229.167969 C 84.257812 229.285156 85.019531 229.460938 85.78125 229.695312 C 84.597656 228.4375 83.378906 227.238281 82.125 226.101562 C 81.496094 225.535156 80.863281 224.984375 80.21875 224.445312 C 79.589844 223.90625 78.96875 223.378906 78.328125 222.871094 C 78.5 223.324219 78.714844 223.757812 78.898438 224.152344 Z M 77.003906 234.164062 C 80.234375 233.554688 83.414062 232.742188 86.542969 231.753906 C 85.109375 231.238281 83.660156 230.921875 82.214844 230.871094 C 82.085938 230.867188 81.976562 230.820312 81.882812 230.746094 C 80.304688 230.519531 78.789062 231.078125 77.753906 232.433594 C 77.421875 232.871094 77.042969 233.445312 77.003906 234.164062 Z M 87.777344 233.300781 C 84.492188 234.394531 81.148438 235.289062 77.746094 235.960938 C 77.921875 236.148438 78.101562 236.3125 78.269531 236.449219 C 79.492188 237.410156 80.910156 237.6875 82.128906 237.503906 C 84.503906 237.140625 86.203125 235.324219 87.777344 233.300781 Z M 137.578125 257.765625 C 137.40625 258.609375 137.234375 259.464844 137.058594 260.324219 C 136.894531 261.167969 136.71875 262.003906 136.527344 262.839844 C 136.144531 264.507812 135.710938 266.164062 135.226562 267.804688 C 135.34375 267.625 135.460938 267.445312 135.566406 267.257812 C 136.347656 265.890625 136.851562 264.371094 137.148438 262.773438 C 137.445312 261.175781 137.53125 259.5 137.578125 257.765625 Z M 134.054688 266.609375 C 134.953125 263.5 135.632812 260.335938 136.28125 257.066406 C 135.628906 258.492188 135.066406 260.039062 134.703125 261.632812 C 134.347656 263.222656 134.128906 264.890625 134.054688 266.609375 Z M 119.128906 203.6875 C 117.664062 206.792969 116.078125 209.820312 114.332031 212.777344 C 114.574219 212.5625 114.8125 212.335938 115.039062 212.097656 C 117.144531 209.875 118.339844 206.878906 119.128906 203.6875 Z M 113.769531 210.824219 C 114.5625 209.453125 115.320312 208.0625 116.046875 206.65625 C 116.777344 205.207031 117.492188 203.78125 118.199219 202.375 C 116.195312 204.765625 114.785156 207.613281 113.769531 210.824219 Z M 114 168.804688 C 112.554688 170.738281 111.105469 172.707031 109.660156 174.707031 C 109.027344 175.566406 108.433594 176.425781 107.851562 177.292969 C 108.125 177.113281 108.390625 176.921875 108.648438 176.714844 C 111.039062 174.78125 112.757812 171.910156 114 168.804688 Z M 107.753906 174.871094 C 109.164062 172.910156 110.574219 170.984375 111.980469 169.089844 L 113.089844 167.601562 C 110.992188 169.574219 109.1875 172.035156 107.753906 174.871094 Z M 108.851562 148.414062 C 108.296875 150.71875 107.640625 153 106.890625 155.25 C 106.15625 157.5 105.453125 159.722656 104.589844 161.90625 L 104.609375 162.308594 C 105.578125 161.558594 106.488281 160.667969 107.296875 159.6875 C 108.242188 158.546875 108.972656 157.335938 109.320312 155.730469 C 109.78125 153.808594 109.792969 151.765625 109.335938 149.84375 C 109.238281 149.417969 109.097656 148.835938 108.851562 148.414062 Z M 104.363281 154.222656 L 104.320312 154.335938 L 104.347656 156.355469 L 104.433594 158.378906 C 104.714844 157.535156 104.992188 156.703125 105.265625 155.878906 C 105.558594 155.042969 105.835938 154.199219 106.101562 153.351562 C 106.632812 151.660156 107.109375 149.949219 107.53125 148.222656 C 107.265625 148.476562 107.035156 148.816406 106.867188 149.050781 C 105.808594 150.550781 104.953125 152.320312 104.363281 154.222656 Z M 99.136719 149.121094 C 100.175781 152.878906 101.410156 156.453125 103.160156 159.769531 L 103.074219 157.953125 C 103.050781 157.257812 102.996094 156.570312 102.996094 155.878906 L 102.984375 153.800781 L 102.984375 153.785156 C 102.539062 152.210938 101.703125 150.828125 100.59375 149.914062 C 100.175781 149.566406 99.65625 149.183594 99.136719 149.121094 Z M 102.367188 161.246094 C 101.46875 159.496094 100.597656 157.675781 99.867188 155.792969 C 99.171875 153.90625 98.546875 151.960938 97.996094 149.96875 C 97.898438 150.214844 97.832031 150.480469 97.785156 150.734375 C 97.46875 152.417969 97.808594 154.25 98.417969 155.738281 C 99.101562 157.382812 100.226562 158.625 101.238281 159.929688 C 101.605469 160.394531 101.980469 160.835938 102.367188 161.246094 Z M 123.761719 273.179688 C 123.574219 273.085938 123.386719 272.988281 123.195312 272.902344 C 120.171875 271.542969 117.195312 271.480469 114.390625 272.023438 C 117.503906 272.214844 120.636719 272.601562 123.761719 273.179688 Z M 113.789062 273.65625 C 117.058594 274.75 120.320312 275.117188 123.375 274.738281 C 120.171875 274.171875 116.96875 273.804688 113.789062 273.65625 Z M 117.542969 259.070312 C 117.832031 257.386719 117.945312 255.59375 117.800781 253.796875 C 117.667969 252 117.332031 250.175781 116.871094 248.367188 C 116.949219 250.265625 117.03125 252.175781 117.109375 254.097656 C 117.183594 256.015625 117.226562 257.953125 117.367188 259.851562 C 117.429688 259.597656 117.492188 259.335938 117.542969 259.070312 Z M 115.90625 258.367188 C 115.789062 254.707031 115.644531 251.078125 115.472656 247.480469 C 115.078125 250.929688 115.222656 254.644531 115.90625 258.367188 Z M 101.027344 245.300781 L 100.847656 245.207031 C 97.699219 243.589844 94.542969 243.542969 91.609375 244.167969 C 94.714844 244.320312 97.878906 244.699219 101.027344 245.300781 Z M 92.101562 245.964844 C 95.257812 247.09375 98.417969 247.457031 101.398438 247.074219 C 98.289062 246.480469 95.183594 246.101562 92.101562 245.964844 Z M 92.101562 245.964844 " fill-opacity="1" fill-rule="nonzero"/><g clip-path="url(#c6de4ac001)"><path fill="#000000" d="M 227.515625 313.699219 C 213.332031 311.316406 213.402344 296.082031 212.792969 294.96875 C 210.796875 298.945312 209.617188 308.414062 203.167969 309.785156 C 201.5 310.140625 201.601562 310.847656 199.519531 310.847656 C 189.53125 310.847656 189.480469 298.921875 187.65625 298.421875 C 174.621094 294.832031 158.828125 259.6875 158.828125 235.433594 C 158.828125 222.308594 172.601562 207.746094 172.601562 203.507812 C 172.601562 203.226562 172.59375 202.492188 171.847656 202.492188 C 170.738281 202.492188 168.582031 203.851562 165.253906 203.851562 C 158.960938 203.851562 152.175781 200.121094 152.175781 193.941406 C 152.175781 188.863281 156.195312 184.667969 159.636719 181.175781 C 159.09375 180.34375 156.605469 177.476562 156.605469 171.699219 C 156.613281 170.007812 156.824219 168.34375 157.230469 166.703125 C 161.105469 150.710938 164.507812 147.132812 182.007812 147.132812 C 184.65625 147.132812 190.042969 147.269531 195.117188 148.546875 C 201.542969 150.164062 203.972656 155.5 203.972656 156.5 C 203.972656 159.21875 197.863281 161.515625 196.167969 162.046875 C 178.464844 167.613281 176.605469 178.429688 169.398438 178.429688 C 167.386719 178.429688 166.167969 177.355469 165.800781 177.210938 C 163.964844 178.390625 162.242188 179.71875 160.640625 181.199219 C 160.691406 181.246094 162.707031 183.453125 166.601562 183.453125 C 179.429688 183.453125 203.007812 158.707031 206.65625 158.707031 C 208.230469 158.707031 210.066406 160.660156 210.5625 162.734375 C 210.769531 163.589844 211.394531 163.714844 211.394531 164.992188 C 211.394531 165.902344 210.769531 168.304688 210.023438 168.304688 C 209.964844 168.308594 209.90625 168.296875 209.851562 168.273438 C 209.769531 168.234375 209.710938 168.054688 209.710938 167.933594 C 209.710938 167.574219 210.101562 167.242188 210.101562 166.214844 C 210.101562 164.054688 208.511719 163.640625 208.332031 163.640625 C 204.355469 163.640625 197.425781 181.074219 180.351562 186.65625 C 173.171875 189 172.613281 192.871094 172.613281 193.441406 C 172.613281 193.742188 172.671875 194.03125 172.785156 194.3125 C 175.550781 201.101562 176.648438 196.105469 184.988281 202.511719 C 185.398438 201.664062 185.785156 200.519531 186.871094 198.851562 C 187.316406 198.167969 187.222656 195.484375 192.695312 191.128906 C 203.570312 182.476562 205.324219 165.714844 208.167969 165.714844 C 208.386719 165.714844 208.753906 165.863281 208.753906 167.371094 C 208.753906 185.890625 190 194.964844 187.769531 198.683594 C 187.707031 198.820312 187.683594 198.960938 187.695312 199.109375 C 187.695312 200.867188 188.25 201.785156 189.144531 203.601562 C 190.691406 206.738281 196.609375 208.375 199.273438 208.375 C 199.578125 208.378906 199.875 208.339844 200.171875 208.261719 C 204.273438 207.082031 201.265625 203.730469 204.546875 201.105469 C 204.839844 200.867188 204.976562 200.691406 204.976562 200.441406 C 204.960938 200.230469 204.910156 200.027344 204.816406 199.839844 C 203.644531 199.917969 201.214844 199.933594 200.863281 199.933594 C 199.414062 199.933594 198.378906 199.433594 198.378906 199.082031 C 198.378906 198.710938 198.773438 198.722656 198.824219 198.722656 C 199.136719 198.761719 199.449219 198.785156 199.765625 198.789062 C 201.828125 198.789062 204.179688 197.699219 205.226562 197.699219 C 205.609375 197.683594 205.914062 197.828125 206.140625 198.136719 C 206.378906 197.511719 206.601562 196.917969 206.84375 196.273438 C 206.613281 196.222656 206.378906 196.199219 206.144531 196.203125 C 205.773438 196.203125 205.492188 196.234375 205.214844 196.234375 C 204.132812 196.234375 203.527344 195.652344 203.527344 194.835938 C 203.527344 193.488281 204.757812 192.667969 206.113281 192.667969 C 206.382812 192.667969 208.289062 192.683594 208.289062 194.554688 C 208.28125 194.964844 208.203125 195.359375 208.054688 195.742188 C 208.386719 195.878906 208.726562 195.945312 209.082031 195.941406 C 210.328125 195.941406 211.347656 195.136719 211.347656 194.523438 C 211.347656 194.238281 209.332031 189.035156 209.332031 185.933594 C 209.332031 183.378906 212.175781 179.15625 212.175781 174.769531 C 212.175781 173.542969 212.007812 173.140625 211.972656 172.304688 C 211.886719 170.277344 210.664062 168.503906 210.664062 168.230469 C 210.664062 168.125 210.699219 168.039062 210.777344 167.96875 C 210.816406 167.945312 210.855469 167.9375 210.902344 167.9375 C 211.332031 167.9375 213.050781 170.632812 213.050781 175.34375 C 213.050781 176.886719 212.878906 177.394531 212.878906 177.949219 C 212.878906 180.652344 215.582031 180.257812 215.582031 182.730469 C 215.582031 184.867188 213.011719 190.199219 213.011719 190.820312 C 213.011719 191.253906 213.394531 191.242188 215.578125 191.699219 C 215.058594 190.96875 214.742188 190.234375 214.742188 189.386719 C 214.742188 187.453125 216.558594 186.332031 217.589844 186.332031 C 218.5625 186.332031 219.921875 187.457031 219.921875 188.996094 C 219.921875 189.191406 219.84375 191.128906 218.871094 191.246094 C 218.75 191.425781 218.695312 191.628906 218.699219 191.84375 C 218.699219 192.230469 218.703125 192.042969 219.8125 194.550781 C 220.390625 194.363281 223.878906 193.621094 224.445312 193.621094 C 224.488281 193.621094 224.53125 193.621094 224.574219 193.625 C 224.65625 193.632812 224.875 193.746094 224.875 193.898438 C 224.875 194.246094 224.78125 194.328125 221.441406 196 C 221.296875 197.519531 221.308594 197.351562 221.308594 197.390625 C 221.308594 197.589844 221.441406 197.6875 221.59375 197.792969 C 226.371094 201.234375 224.273438 205.554688 229.058594 205.554688 C 229.789062 205.554688 230.972656 205.324219 235.152344 201.945312 C 234.769531 201.601562 226.746094 195.539062 226.746094 187.371094 C 226.746094 182.894531 228.960938 177.320312 235.011719 177.320312 C 237.171875 177.320312 243.558594 178.832031 243.558594 184.597656 C 243.558594 191.519531 237.148438 200.015625 236.035156 201.789062 L 238.039062 203.707031 C 239.167969 202.921875 241.054688 197.132812 260.238281 188.164062 C 256.976562 180.546875 257.257812 181.332031 255.164062 177.394531 C 254.179688 177.4375 254.316406 177.515625 253.664062 177.515625 C 249.632812 177.515625 247.574219 172.238281 247.140625 171.363281 C 244.808594 176.453125 241.535156 176.9375 241.027344 176.9375 C 240.683594 176.9375 238.792969 176.847656 238.792969 175.617188 C 238.792969 174.914062 239.402344 174.488281 239.722656 174.1875 C 239.285156 172.675781 239.558594 172.9375 239.324219 170.984375 C 238.820312 166.785156 235.816406 167.296875 235.816406 164.34375 C 235.816406 160.984375 240.324219 161.171875 240.492188 161.171875 C 242.226562 161.171875 245.671875 161.847656 246.492188 165.8125 C 246.527344 165.972656 247.945312 176.890625 253.75 176.890625 C 254.105469 176.886719 254.453125 176.84375 254.800781 176.753906 C 254.796875 176.671875 254.78125 176.59375 254.753906 176.519531 C 249.746094 166.234375 252.554688 137.5 239.128906 137.5 C 236.261719 137.5 233.269531 138.664062 228.558594 142 C 215.136719 151.507812 208.898438 151.796875 208.898438 154.09375 C 208.898438 155.46875 211.707031 157.535156 216.179688 157.535156 C 220.554688 157.535156 225.476562 155.449219 227.113281 155.449219 C 227.550781 155.449219 228.703125 155.480469 228.703125 156.304688 C 228.703125 158.945312 222.628906 163.644531 222.628906 167.535156 C 222.628906 169.007812 223.574219 169.117188 224.515625 169.117188 C 225.492188 169.117188 226.777344 168.914062 228.773438 168.914062 C 232.300781 168.914062 231.363281 171.328125 232.601562 171.660156 C 232.703125 171.726562 232.761719 171.824219 232.777344 171.945312 C 232.710938 172.113281 232.585938 172.207031 232.410156 172.222656 C 230.863281 172.222656 231.800781 169.566406 229.105469 169.566406 C 227.875 169.566406 225.960938 169.757812 224.453125 169.757812 C 223.742188 169.757812 221.957031 169.792969 221.957031 167.476562 C 221.957031 163.480469 226.53125 160.519531 228.054688 156.359375 C 227.84375 156.160156 227.59375 156.066406 227.308594 156.078125 C 225.578125 156.078125 220.527344 158.210938 215.789062 158.210938 C 212.734375 158.210938 208.230469 156.5 208.230469 154.113281 C 208.230469 152.578125 210.34375 151.664062 210.425781 151.621094 C 233.574219 139.285156 232.949219 136.839844 239.136719 136.839844 C 246.015625 136.839844 249.125 143.726562 250.605469 152.75 C 254.976562 179.355469 252.648438 169.542969 260.808594 187.925781 C 263.308594 186.984375 263.621094 186.949219 263.925781 186.949219 C 265.515625 186.949219 266.523438 189.246094 266.523438 190.601562 C 266.519531 191.125 266.441406 191.636719 266.289062 192.136719 C 266 193.125 244.636719 202.386719 237.601562 211.851562 C 233.847656 216.894531 234.617188 217.527344 234 217.527344 C 233.988281 217.527344 233.679688 217.542969 233.679688 217.050781 C 233.679688 214.140625 234.019531 213.878906 234.019531 213.699219 C 234.019531 213.671875 234.003906 213.636719 233.996094 213.585938 C 231.105469 217.867188 229.441406 222.59375 228.59375 227.660156 C 235.171875 219.195312 256.175781 193.339844 270.445312 193.339844 C 272.574219 193.339844 273.582031 196.296875 273.582031 198.375 C 273.582031 200.980469 272.832031 201.207031 271.855469 201.8125 C 273.230469 202.785156 285.519531 207.171875 285.519531 228.199219 C 285.519531 256.667969 267.648438 280.253906 254.199219 294.738281 C 244.609375 305.0625 235.488281 309.722656 235.480469 309.730469 C 230.9375 313.753906 228.953125 313.476562 228.148438 313.699219 Z M 254.738281 215.5 L 254.777344 215.566406 C 255.300781 215.273438 259.058594 212.625 263.933594 212.625 C 272.167969 212.625 277.777344 219.527344 277.777344 228 C 277.777344 239.828125 268.269531 249.230469 259.058594 249.230469 C 250.511719 249.230469 245.175781 242.085938 245.175781 233.734375 C 245.175781 229.363281 246.425781 226.929688 246.46875 226.3125 C 244.039062 228.773438 235.117188 246.808594 235.117188 259.132812 C 235.117188 260.523438 238.210938 265.019531 238.210938 268.554688 C 238.210938 270.199219 237.632812 270.882812 236.832031 270.882812 C 234.015625 270.882812 234.132812 264.691406 234.132812 263.609375 C 234.144531 262.320312 234.21875 261.035156 234.363281 259.757812 C 234.363281 257.878906 231.414062 254.824219 228.578125 234.527344 C 228.5625 234.359375 228.5 234.210938 228.386719 234.085938 C 228.273438 233.960938 228.132812 233.878906 227.96875 233.847656 C 227.097656 233.566406 226.207031 233.421875 225.292969 233.414062 C 215.078125 233.414062 204.078125 241.367188 204.078125 245.804688 C 204.078125 246.46875 205.539062 251.023438 206.222656 252.757812 C 214.902344 274.765625 212.28125 287.285156 213.367188 292.054688 C 215.898438 288.050781 221.578125 277.800781 231.210938 277.800781 C 238.472656 277.800781 243.082031 284.273438 243.082031 292.265625 C 243.082031 300.554688 238.285156 306.570312 237.972656 307.125 C 238.453125 306.925781 260.453125 293.09375 265.445312 273.714844 C 270.582031 253.785156 281.460938 242.429688 281.460938 226.917969 C 281.460938 226.519531 281.90625 208.851562 269.125 208.851562 C 262.742188 208.851562 254.761719 215.480469 254.738281 215.5 Z M 187.035156 199.828125 C 186.042969 201.429688 185.609375 203.421875 185.132812 203.421875 C 185.039062 203.414062 184.960938 203.382812 184.890625 203.320312 C 179.960938 199.355469 180.25 200.355469 175.929688 198.980469 C 172.742188 197.964844 171.949219 193.828125 171.949219 193.433594 C 171.949219 191.414062 174.453125 188.246094 177.621094 186.976562 C 187.816406 182.882812 180.6875 185.960938 188.425781 181.925781 C 197.078125 177.410156 204.738281 162.972656 208.339844 162.972656 C 209.730469 162.972656 210.648438 164.980469 210.664062 165.003906 C 210.664062 164.957031 210.667969 164.90625 210.667969 164.859375 C 210.667969 163.835938 210.121094 163.773438 210.042969 163.261719 C 209.722656 161.1875 207.859375 159.371094 206.660156 159.371094 C 203.300781 159.371094 179.621094 184.101562 166.5625 184.101562 C 162.746094 184.101562 160.878906 182.246094 160.105469 181.671875 C 158.320312 183.445312 152.839844 188.460938 152.839844 193.910156 C 152.839844 199.699219 159.265625 203.199219 165.148438 203.199219 C 168.675781 203.199219 170.179688 201.847656 171.921875 201.847656 C 172.105469 201.847656 173.253906 201.863281 173.253906 203.53125 C 173.253906 208.328125 159.492188 222.140625 159.492188 235.796875 C 159.492188 244.613281 167.722656 250.542969 172.929688 251.113281 C 172.9375 251.058594 172.953125 251.027344 172.953125 251 C 172.953125 250.875 170.703125 244.773438 170.703125 238.539062 C 170.703125 236.054688 172.046875 218.300781 184.226562 218.300781 C 188.765625 218.300781 191.007812 221.15625 191.667969 221.679688 C 191.039062 218.855469 190.699219 215.996094 190.640625 213.101562 C 190.675781 210.949219 190.917969 208.824219 191.371094 206.722656 C 188.332031 204.722656 187.488281 202.222656 187.035156 199.828125 Z M 194.390625 232.761719 L 194.28125 232.75 C 189.414062 244.195312 173.535156 239.398438 173.535156 249.839844 C 173.535156 250.714844 173.710938 251.546875 174.054688 252.347656 C 179.621094 265.4375 186.625 310.179688 199.359375 310.179688 C 200.269531 310.179688 200.503906 310.058594 200.667969 310.011719 C 191.957031 306.925781 189.546875 295.902344 189.546875 290.992188 C 189.546875 282.023438 195.148438 277.066406 198.152344 277.066406 C 198.859375 277.066406 199.058594 277.226562 199.632812 277.296875 C 197.882812 262.417969 196.136719 247.570312 194.390625 232.761719 Z M 277.117188 228.101562 C 277.117188 220.15625 272.171875 213.304688 263.738281 213.304688 C 255.253906 213.304688 245.839844 222.195312 245.839844 233.71875 C 245.839844 238.9375 248.765625 248.550781 259.117188 248.550781 C 267.980469 248.550781 277.121094 239.332031 277.121094 228.101562 Z M 234.539062 257.890625 C 234.585938 257.777344 234.628906 257.660156 234.660156 257.539062 C 238.53125 231.222656 245.503906 227.8125 247.71875 223.601562 C 253.753906 212.125 264.8125 208.191406 269.128906 208.191406 C 281.441406 208.191406 282.121094 223.390625 282.121094 226.941406 C 282.121094 233.34375 280.261719 239.625 276.683594 247.371094 C 260.828125 281.691406 269.550781 269.582031 261.664062 284.527344 C 262.457031 284.152344 284.878906 256.300781 284.878906 228.03125 C 284.878906 208.082031 273.484375 203.546875 271.015625 202.167969 C 270.53125 202.410156 233.21875 213.410156 227.066406 232.894531 C 231.613281 234.300781 228.1875 242.230469 234.539062 257.890625 Z M 191.355469 211.234375 C 191.347656 211.960938 191.316406 212.632812 191.316406 213.289062 C 191.375 216.65625 191.851562 219.964844 192.746094 223.210938 C 197.296875 239.878906 198.667969 269.957031 200.292969 276.847656 C 204.875 270.132812 208.421875 264.054688 208.9375 264.054688 C 208.988281 264.054688 209.035156 264.066406 209.082031 264.089844 C 209.167969 264.175781 209.210938 264.277344 209.207031 264.402344 C 209.207031 264.632812 201.679688 275.878906 200.476562 277.824219 C 205.890625 283.226562 207.050781 293.347656 207.050781 297.191406 C 207.050781 305.335938 203.554688 308.578125 203.496094 309 C 204.832031 308.675781 205.933594 307.976562 206.792969 306.902344 C 209.015625 304.195312 212.722656 293.078125 212.722656 293.015625 C 212.722656 263.558594 203.4375 250.226562 203.4375 245.671875 C 203.4375 243.90625 205.453125 241.617188 205.964844 241.019531 C 204.941406 239.046875 202.78125 235.554688 202.78125 231.535156 C 202.78125 226.851562 203.507812 229.507812 203.507812 225.566406 C 203.507812 218.699219 199.378906 216.5 191.355469 211.234375 Z M 242.425781 292.835938 C 242.402344 282.484375 236.484375 278.449219 231.246094 278.449219 C 220.703125 278.449219 213.445312 293.082031 213.445312 293.664062 C 213.445312 302.804688 219.421875 312.976562 227.789062 312.976562 C 232.421875 312.976562 242.019531 305.050781 242.425781 292.835938 Z M 220.796875 196.003906 C 219.722656 195.691406 219.167969 195.726562 219.074219 194.746094 C 219.003906 194.019531 218.582031 193.417969 218.292969 192.777344 C 218.113281 192.859375 217.925781 192.910156 217.726562 192.925781 C 217.535156 192.914062 217.347656 192.878906 217.164062 192.828125 C 213.0625 191.839844 212.339844 191.855469 212.339844 190.839844 C 212.339844 189.949219 214.90625 184.898438 214.90625 182.859375 C 214.914062 182.488281 214.832031 182.140625 214.65625 181.816406 C 214.480469 181.488281 214.234375 181.230469 213.921875 181.035156 C 212.417969 180.007812 212.472656 178.988281 212.222656 178.796875 C 212.207031 178.820312 209.988281 184.496094 209.988281 186.039062 C 209.988281 188.8125 212.027344 194.09375 212.027344 194.648438 C 212.027344 195.976562 209.664062 196.613281 208.996094 196.613281 C 208.332031 196.613281 207.976562 196.425781 207.738281 196.425781 C 207.5625 196.425781 207.492188 196.53125 207.332031 196.816406 C 207.199219 197.0625 207.011719 197.324219 206.996094 197.582031 C 206.9375 198.878906 205.523438 199.296875 205.523438 199.878906 C 205.5625 200.054688 205.585938 200.230469 205.59375 200.410156 C 205.59375 200.679688 205.523438 200.929688 205.382812 201.160156 C 205.242188 201.390625 205.054688 201.566406 204.816406 201.691406 C 202.34375 203.230469 204.742188 209.011719 199.484375 209.011719 C 195.652344 209.011719 194.191406 207.910156 191.925781 207.042969 C 191.746094 208.226562 191.507812 209.359375 191.449219 210.558594 C 195.449219 213.109375 199.976562 215.921875 201.5 217.992188 C 204.164062 221.621094 203.949219 222.613281 204.222656 226.371094 C 205.488281 224.777344 208.265625 219.011719 210.019531 219.011719 C 210.339844 219.011719 210.871094 219.210938 211.105469 219.210938 C 211.484375 219.210938 211.324219 219.089844 212.484375 214.507812 C 213.164062 211.824219 215.433594 211.753906 215.464844 211.753906 C 218.613281 211.753906 218.804688 213.570312 219.296875 217.671875 C 219.964844 217.152344 221.074219 216.929688 221.558594 216.929688 C 222.25 216.929688 222.757812 217.257812 223.167969 217.957031 C 224.125 219.578125 226.707031 227.210938 226.707031 230.761719 C 226.707031 231.15625 226.691406 231.390625 226.691406 231.457031 C 226.691406 231.566406 226.703125 231.679688 226.710938 231.789062 L 226.792969 231.792969 L 228.097656 229.175781 C 227.828125 228.902344 227.726562 228.78125 227.726562 228.546875 C 227.726562 220.699219 237.453125 207.375 237.453125 204.4375 C 237.453125 203.953125 237.222656 203.863281 235.636719 202.339844 C 235.582031 202.386719 231.398438 206.222656 229.011719 206.222656 C 225.289062 206.222656 224.515625 202.925781 223.828125 201.210938 C 222.835938 198.726562 220.675781 198.617188 220.675781 197.394531 C 220.675781 197.121094 220.683594 197.582031 220.796875 196.003906 Z M 166.496094 176.90625 C 167.425781 177.464844 168.429688 177.746094 169.511719 177.757812 C 172.726562 177.757812 174.78125 175.050781 183.867188 167.078125 C 190.425781 161.324219 203.3125 160.738281 203.3125 156.53125 C 203.300781 156.136719 203.191406 155.769531 202.984375 155.429688 C 200.039062 150.210938 195.324219 147.792969 181.988281 147.792969 C 170.40625 147.792969 166.566406 150.074219 165.054688 151.261719 C 159.875 155.347656 157.273438 168.710938 157.273438 171.714844 C 157.273438 176.058594 158.707031 178.855469 160.167969 180.726562 C 161.773438 179.246094 163.5 177.921875 165.347656 176.761719 C 165.253906 176.3125 164.066406 175.332031 164.066406 172.292969 C 164.066406 161.316406 181.019531 152.144531 188.632812 152.144531 C 192 152.144531 193.570312 154.664062 193.570312 156.816406 C 193.574219 157.382812 193.460938 157.929688 193.230469 158.449219 C 192.996094 158.96875 192.667969 159.421875 192.246094 159.800781 C 191.578125 160.410156 171.992188 174.066406 166.496094 176.90625 Z M 159.863281 241.410156 L 159.792969 241.4375 C 160.613281 259.03125 174.449219 293.65625 187.785156 297.773438 C 187.011719 295.097656 180.207031 276.089844 173.367188 252.238281 C 172.921875 250.691406 165.472656 252.457031 159.863281 241.410156 Z M 172.890625 248.59375 L 173.003906 248.574219 C 175.140625 238.675781 194.007812 242.183594 194.007812 230.058594 C 194.007812 227.265625 192.152344 218.957031 184.046875 218.957031 C 175.148438 218.957031 171.367188 230.796875 171.367188 238.464844 C 171.367188 242.648438 172.410156 246.695312 172.890625 248.59375 Z M 206.382812 296.84375 L 206.382812 296.785156 C 205.953125 287.207031 202.164062 277.714844 198.1875 277.714844 C 195.941406 277.714844 190.195312 281.914062 190.195312 290.855469 C 190.195312 300.609375 196.742188 309.347656 201.476562 309.347656 C 202.890625 309.347656 206.382812 305.15625 206.382812 296.84375 Z M 219.683594 218.242188 C 220.644531 219.710938 221.316406 220.132812 221.316406 221.34375 C 221.316406 221.9375 221.117188 222.460938 220.542969 222.460938 C 218.300781 222.460938 218.933594 214.171875 217.476562 213.050781 C 216.773438 212.511719 215.394531 212.410156 215.375 212.410156 C 215.335938 212.410156 213.734375 212.6875 213.304688 214.132812 C 211.804688 219.148438 212.074219 219.882812 211.339844 219.882812 C 210.644531 219.882812 210.328125 219.6875 210.074219 219.6875 C 209.085938 219.6875 203.46875 227.652344 203.46875 230.097656 C 203.46875 230.277344 203.480469 230.324219 203.480469 230.652344 C 203.480469 230.960938 203.46875 231.273438 203.46875 231.585938 C 203.46875 235.847656 206.347656 240.355469 206.46875 240.503906 C 206.75 240.25 214.664062 232.738281 225.015625 232.738281 C 225.324219 232.738281 225.636719 232.738281 225.957031 232.738281 C 226.011719 232.117188 226.042969 231.5 226.042969 230.886719 C 226.058594 229.148438 225.785156 227.453125 225.226562 225.808594 C 222.9375 219.1875 223.710938 220.195312 222.558594 218.21875 C 222.460938 218.027344 222.320312 217.875 222.136719 217.761719 C 221.953125 217.652344 221.753906 217.597656 221.535156 217.597656 C 221.445312 217.597656 221.359375 217.605469 221.269531 217.621094 C 220.113281 217.820312 220 218.039062 219.683594 218.242188 Z M 165.941406 176.285156 C 166.640625 176.226562 168.953125 175.023438 169.949219 174.328125 C 192.226562 158.789062 192.898438 159.617188 192.898438 156.820312 C 192.898438 156.652344 192.917969 152.824219 188.480469 152.824219 C 181.925781 152.824219 164.71875 161.421875 164.71875 172.347656 C 164.71875 173.621094 165.0625 175.386719 165.941406 176.285156 Z M 235.53125 201.382812 C 238.292969 197.488281 242.902344 190.265625 242.902344 184.519531 C 242.902344 178.496094 235.0625 177.972656 234.929688 177.972656 C 228.042969 177.972656 227.429688 185.78125 227.429688 187.339844 C 227.429688 194.332031 232.964844 199.113281 235.53125 201.382812 Z M 236.816406 218.765625 L 236.871094 218.824219 C 257.882812 203.757812 260.632812 205.871094 271.761719 201.082031 C 272.4375 200.792969 272.914062 200.296875 272.914062 198.40625 C 272.914062 196.566406 272.050781 194.015625 270.511719 194.015625 C 267.980469 194.015625 260.035156 196.875 254.820312 200.777344 C 250.308594 204.152344 236.835938 218.746094 236.816406 218.765625 Z M 234.351562 215.40625 C 234.417969 215.355469 234.484375 215.296875 234.542969 215.234375 C 245.519531 198.753906 265.859375 193.855469 265.859375 190.640625 C 265.859375 189.050781 264.789062 187.617188 263.882812 187.617188 C 263.707031 187.617188 252.089844 190.191406 239.8125 202.671875 C 237.351562 205.175781 234.796875 212.613281 234.351562 215.40625 Z M 188.503906 196.574219 L 188.578125 196.65625 C 192.605469 193.074219 195.988281 191.25 199.894531 187.238281 C 205.605469 181.367188 208.085938 170.34375 208.085938 167.085938 C 208.0625 166.960938 208.027344 166.835938 207.980469 166.71875 C 207.242188 167.65625 206.65625 168.679688 206.21875 169.789062 C 197.558594 192.09375 195.074219 187.976562 188.503906 196.574219 Z M 240.160156 172.074219 C 240.832031 171.144531 242.09375 170.179688 242.09375 168.558594 C 242.09375 168.183594 242.039062 167.015625 241.28125 167.015625 C 240.710938 167.015625 240.238281 167.808594 240.238281 168.195312 C 240.238281 168.347656 240.269531 168.402344 240.269531 168.523438 C 240.277344 168.625 240.246094 168.707031 240.175781 168.777344 C 240.109375 168.851562 240.023438 168.882812 239.925781 168.878906 C 239.269531 168.878906 238.859375 165.984375 238.859375 165.355469 C 238.859375 162.816406 240.707031 162.945312 240.933594 162.945312 C 243.722656 162.945312 245.039062 165.507812 245.039062 167.824219 C 245.039062 172.988281 239.453125 174.515625 239.453125 175.605469 C 239.453125 176.160156 240.660156 176.269531 241.023438 176.269531 C 242.902344 176.269531 246.632812 172.933594 246.632812 170.078125 C 246.632812 169.753906 246.585938 169.433594 246.492188 169.125 C 245.804688 166.820312 246.160156 161.8125 240.351562 161.8125 C 239.238281 161.8125 236.472656 162.117188 236.472656 164.347656 C 236.464844 165.015625 236.699219 165.589844 237.164062 166.070312 C 239.449219 168.34375 239.4375 167.914062 240.160156 172.074219 Z M 239.519531 165.449219 C 239.539062 166.066406 239.636719 166.671875 239.816406 167.265625 C 240.210938 166.847656 240.5625 166.359375 241.265625 166.359375 C 242.144531 166.359375 242.761719 167.132812 242.761719 168.5 C 242.761719 171.164062 240.210938 172.117188 240.210938 173.734375 L 240.210938 173.757812 C 240.210938 173.800781 240.210938 173.847656 240.207031 173.902344 C 243.046875 172.195312 244.347656 170.175781 244.347656 167.84375 C 244.347656 163.988281 241.671875 163.625 240.902344 163.625 C 240.203125 163.625 239.519531 163.816406 239.519531 165.449219 Z M 234.929688 261 C 234.832031 261.847656 234.785156 262.695312 234.785156 263.546875 C 234.785156 269.875 236.378906 270.222656 236.796875 270.222656 C 237.109375 270.222656 237.539062 270.03125 237.539062 268.464844 C 237.539062 267.367188 237.324219 266.316406 236.890625 265.3125 C 234.90625 260.679688 235.074219 261.15625 234.929688 261 Z M 217.371094 189.964844 C 217.953125 189.980469 218.441406 190.203125 218.839844 190.628906 C 219.09375 190.132812 219.234375 189.605469 219.265625 189.050781 C 219.265625 188.230469 218.578125 187.011719 217.550781 187.011719 C 216.90625 187.011719 215.390625 187.832031 215.390625 189.441406 C 215.386719 189.851562 215.5 190.222656 215.738281 190.554688 C 216.28125 190.207031 216.824219 189.964844 217.371094 189.964844 Z M 206.589844 194.621094 C 206.96875 194.628906 207.296875 194.761719 207.578125 195.019531 C 207.628906 194.847656 207.652344 194.671875 207.65625 194.492188 C 207.65625 193.515625 206.71875 193.339844 206.164062 193.339844 C 205.101562 193.339844 204.214844 193.871094 204.214844 194.75 C 204.214844 194.9375 204.265625 195.480469 204.640625 195.480469 C 205.035156 195.480469 205.628906 194.621094 206.589844 194.621094 Z M 201.863281 199.207031 L 201.867188 199.332031 C 204.964844 199.222656 205.167969 199.425781 205.363281 198.347656 C 204.136719 198.46875 203.027344 198.953125 201.863281 199.207031 Z M 220.53125 221.796875 C 220.589844 221.628906 220.617188 221.457031 220.617188 221.28125 C 220.617188 220.636719 220.234375 219.953125 219.550781 219.4375 C 219.835938 220.285156 219.824219 221.144531 220.53125 221.796875 Z M 221.074219 195.367188 C 221.582031 195.367188 222.035156 195 222.554688 194.714844 C 222.503906 194.714844 222.453125 194.714844 222.402344 194.714844 C 221.558594 194.714844 220.691406 194.910156 220.398438 195.144531 C 220.601562 195.289062 220.824219 195.363281 221.074219 195.367188 Z M 217.34375 190.640625 C 216.964844 190.644531 216.632812 190.773438 216.351562 191.027344 C 216.378906 191.027344 216.40625 191.027344 216.433594 191.027344 C 216.902344 191.039062 217.335938 190.925781 217.738281 190.6875 C 217.609375 190.65625 217.476562 190.640625 217.34375 190.640625 Z M 206.566406 195.296875 C 206.394531 195.296875 206.246094 195.363281 206.125 195.492188 C 206.148438 195.488281 206.175781 195.484375 206.199219 195.484375 C 206.328125 195.484375 206.464844 195.546875 206.601562 195.546875 C 206.734375 195.546875 206.839844 195.488281 206.910156 195.371094 C 206.800781 195.324219 206.6875 195.300781 206.570312 195.296875 Z M 216.789062 191.929688 L 216.746094 192.035156 L 217.570312 192.222656 L 217.59375 192.117188 Z M 216.789062 191.929688 " fill-opacity="1" fill-rule="nonzero"/></g></svg>